<svg height="480pt" viewBox="0 -16 480.08193 480" width="480pt" xmlns="http://www.w3.org/2000/svg"><path d="m48.042969 88.105469h16v16h-16zm0 0"/><path d="m128.042969 88.105469h16v16h-16zm0 0"/><path d="m88.042969 96.105469h16v40h-16zm0 0"/><path d="m64.042969 152.105469h64v16h-64zm0 0"/><path d="m336.042969 96.105469h16v16h-16zm0 0"/><path d="m400.042969 96.105469h16v16h-16zm0 0"/><path d="m368.042969 104.105469h16v40h-16zm0 0"/><path d="m344.042969 160.105469h64v16h-64zm0 0"/><path d="m200.042969 240.105469h16v16h-16zm0 0"/><path d="m264.042969 240.105469h16v16h-16zm0 0"/><path d="m224.042969 272.105469h32v16h-32zm0 0"/><path d="m368.042969 256.105469h16v16h-16zm0 0"/><path d="m368.042969 288.105469h16v16h-16zm0 0"/><path d="m368.042969 320.105469h16v16h-16zm0 0"/><path d="m424.082031.105469h-96c-30.914062.035156-55.964843 25.085937-56 56v88.648437c-2.660156-.410156-5.347656-.625-8.039062-.648437h-48c-15.054688-.019531-29.476563 6.039062-40 16.800781v-98.136719c9.199219-2.582031 15.671875-10.824219 16-20.375 0-1.828125-.257813-3.648437-.761719-5.40625 5.558594-5.996093 8.683594-13.851562 8.761719-22.027343v-14.855469h-176c-6.496094-.484375-12.902344 1.738281-17.703125 6.136719-6.488282 6.542968-6.402344 15.863281-6.3203128 25.734374v10.402344c.3281248 9.550782 6.7968748 17.789063 15.9999998 20.375v145.351563h48v16h-47.976562v224h432v-208c17.726562-.183594 32.007812-14.589844 32.039062-32.320313v-151.679687c-.035156-30.914063-25.085937-55.964844-56-56zm-208.039062 160h48c22.078125.027343 39.972656 17.921875 40 40v8h-127.960938v-8.421875c.230469-21.910156 18.046875-39.554688 39.960938-39.578125zm128.039062 48v16h-24.039062v-16zm48 16h-32v-16h32zm-72-32v-112h112v112zm-192 16h32v16h-32zm48 16h127.960938v80h-128zm32 96v16h-32.039062v-16zm16 16v-16h32v16zm32 16c0 8.835937-7.164062 16-16 16-8.835937 0-16-7.164063-16-16zm16-32h32v16h-32.039062zm-254.335937-302.605469c1.898437-1.152344 4.128906-1.640625 6.335937-1.394531h159.960938c-.535157 5.101562-3.214844 9.734375-7.367188 12.738281l-6.097656 4.796875 4.582031 6.25c.570313.722656.890625 1.609375.921875 2.527344 0 3.097656-3.664062 5.710937-8 5.710937h-144c-4.335937 0-8-2.613281-8-5.710937v-10.558594c-.039062-5.898437-.136719-12.554687 1.664063-14.359375zm14.335937 174.605469v-128h128v128zm48 16h32v16h-32zm31.960938 48h-32v-16h32zm-32 16h32v76.6875l-16 16-16-16zm80 160h-128v-192h32v115.3125l32 32 32-32v-115.3125h32zm144 0h-128v-80h32c0 17.675781 14.324219 32 32 32 17.671875 0 32-14.324219 32-32h32zm128 0h-112v-192h112zm32.039062-224.351563c-.007812 9.027344-7.324219 16.34375-16.351562 16.351563h-39.648438v-16h40v-144h-144v96.929687c-4.621093-4.71875-10.039062-8.585937-16-11.425781v-93.503906c.027344-22.078125 17.917969-39.972657 40-40h96c22.082031.027343 39.972657 17.921875 40 40zm0 0"/></svg>