<svg height="480pt" viewBox="0 -16 480 480" width="480pt" xmlns="http://www.w3.org/2000/svg"><path d="m387 80h-59v-72c0-4.417969-3.582031-8-8-8h-160c-4.417969 0-8 3.582031-8 8v72h-59c-51.339844.058594-92.9414062 41.660156-93 93v99c0 4.417969 3.582031 8 8 8h8v160c0 4.417969 3.582031 8 8 8h432c4.417969 0 8-3.582031 8-8v-160h8c4.417969 0 8-3.582031 8-8v-99c-.058594-51.339844-41.660156-92.941406-93-93zm-219-64h144v64h-16v-40c0-4.417969-3.582031-8-8-8h-96c-4.417969 0-8 3.582031-8 8v40h-16zm32 64v-32h80v32zm248 352h-416v-152h16v136h384v-136h16zm-248-152h80v16h-80zm-8 32h96c4.417969 0 8-3.582031 8-8v-24h120v120h-352v-120h120v24c0 4.417969 3.582031 8 8 8zm272-48h-448v-91c.042969-42.507812 34.492188-76.957031 77-77h294c42.507812.042969 76.957031 34.492188 77 77zm0 0"/><path d="m304 152h-40v-32c0-4.417969-3.582031-8-8-8h-32c-4.417969 0-8 3.582031-8 8v32h-40c-4.417969 0-8 3.582031-8 8v32c0 4.417969 3.582031 8 8 8h40v32c0 4.417969 3.582031 8 8 8h32c4.417969 0 8-3.582031 8-8v-32h40c4.417969 0 8-3.582031 8-8v-32c0-4.417969-3.582031-8-8-8zm-8 32h-40c-4.417969 0-8 3.582031-8 8v32h-16v-32c0-4.417969-3.582031-8-8-8h-40v-16h40c4.417969 0 8-3.582031 8-8v-32h16v32c0 4.417969 3.582031 8 8 8h40zm0 0"/><path d="m432 184c.441406.003906.882812-.035156 1.320312-.113281 4.355469-.726563 7.296876-4.84375 6.574219-9.199219-8.855469-53.167969-68.230469-62.246094-70.75-62.609375-4.375-.625-8.429687 2.410156-9.054687 6.785156-.628906 4.375 2.40625 8.429688 6.78125 9.058594.503906.070313 50.289062 7.652344 57.25 49.390625.640625 3.855469 3.972656 6.683594 7.878906 6.6875zm0 0"/><path d="m432 200c-4.417969 0-8 3.582031-8 8v32c0 4.417969 3.582031 8 8 8s8-3.582031 8-8v-32c0-4.417969-3.582031-8-8-8zm0 0"/><path d="m110.863281 112.078125c-2.519531.363281-61.894531 9.441406-70.75 62.609375-.722656 4.355469 2.21875 8.472656 6.574219 9.199219.433594.078125.871094.113281 1.3125.113281 3.90625-.003906 7.238281-2.832031 7.878906-6.6875 6.929688-41.503906 55.199219-49.089844 57.265625-49.402344 4.292969-.710937 7.230469-4.726562 6.605469-9.035156-.621094-4.308594-4.574219-7.328125-8.894531-6.796875zm0 0"/><path d="m48 200c-4.417969 0-8 3.582031-8 8v32c0 4.417969 3.582031 8 8 8s8-3.582031 8-8v-32c0-4.417969-3.582031-8-8-8zm0 0"/></svg>