<svg height="480pt" viewBox="0 0 480.06435 480" width="480pt" xmlns="http://www.w3.org/2000/svg"><path d="m368.0625 208.054688h-112v112h112zm-16 48h-32v-32h32zm-48-32v32h-32v-32zm-32 48h32v32h-32zm48 32v-32h32v32zm0 0"/><path d="m192.0625 288.054688h16v48h-16zm0 0"/><path d="m480.0625 336.054688c0-31.804688-10.988281-64-32-64-21.007812 0-32 32.195312-32 64 0 27.480468 8.226562 55.203124 24 62.25v17.75h-40v-224h72c3.445312 0 6.503906-2.203126 7.589844-5.46875 1.089844-3.265626-.035156-6.863282-2.789063-8.929688l-232-176c-2.855469-2.164062-6.804687-2.164062-9.664062 0l-232 176c-2.761719 2.074219-3.882813 5.6875-2.777344 8.960938 1.105469 3.273437 4.1875 5.46875 7.640625 5.4375h72v224h-40v-17.75c15.777344-7.046876 24-34.769532 24-62.25 0-31.804688-10.988281-64-32-64-21.007812 0-32 32.195312-32 64 0 27.480468 8.226562 55.203124 24 62.25v17.75h-24v64h480v-64h-24v-17.75c15.777344-7.046876 24-34.769532 24-62.25zm-464 0c0-29.773438 10.402344-48 16-48 5.601562 0 16 18.226562 16 48 0 29.777343-10.359375 48-16 48-5.636719 0-16-18.222657-16-48zm15.785156-160 208.214844-157.957032 208.21875 157.957032zm64.214844 16h288v224h-144v-144c0-35.34375-28.652344-64-64-64-35.34375 0-64 28.65625-64 64v144h-16zm128 224h-96v-144c0-26.507813 21.492188-48 48-48 26.511719 0 48 21.492187 48 48zm240 48h-448v-32h448zm-32-128c0-29.773438 10.402344-48 16-48 5.601562 0 16 18.226562 16 48 0 29.777343-10.398438 48-16 48-5.597656 0-16-18.222657-16-48zm0 0"/></svg>