<svg height="480pt" viewBox="-1 0 479 480" width="480pt" xmlns="http://www.w3.org/2000/svg"><path d="m208.5 384h-160c-4.417969 0-8 3.582031-8 8s3.582031 8 8 8h160c4.417969 0 8-3.582031 8-8s-3.582031-8-8-8zm0 0"/><path d="m40.5 160h304c4.417969 0 8-3.582031 8-8s-3.582031-8-8-8h-304c-4.417969 0-8 3.582031-8 8s3.582031 8 8 8zm0 0"/><path d="m344.5 176h-136c-4.417969 0-8 3.582031-8 8s3.582031 8 8 8h136c4.417969 0 8-3.582031 8-8s-3.582031-8-8-8zm0 0"/><path d="m40.5 192h136c4.417969 0 8-3.582031 8-8s-3.582031-8-8-8h-136c-4.417969 0-8 3.582031-8 8s3.582031 8 8 8zm0 0"/><path d="m40.5 224h208c4.417969 0 8-3.582031 8-8s-3.582031-8-8-8h-208c-4.417969 0-8 3.582031-8 8s3.582031 8 8 8zm0 0"/><path d="m40.5 64h96c4.417969 0 8-3.582031 8-8s-3.582031-8-8-8h-96c-4.417969 0-8 3.582031-8 8s3.582031 8 8 8zm0 0"/><path d="m40.5 96h192c4.417969 0 8-3.582031 8-8s-3.582031-8-8-8h-192c-4.417969 0-8 3.582031-8 8s3.582031 8 8 8zm0 0"/><path d="m40.5 480h304c22.082031-.027344 39.972656-17.917969 40-40v-156.6875l77.65625-77.65625c10.253906-10.257812 25.136719-34.175781 8-51.3125s-41.054688-2.265625-51.3125 8l-34.34375 34.34375v-156.6875c-.027344-22.082031-17.917969-39.9726562-40-40h-304c-22.082031.0273438-39.972656 17.917969-40 40v400c.027344 22.082031 17.917969 39.972656 40 40zm256-131.3125-20.6875-20.6875 148.6875-148.6875 20.6875 20.6875zm-29.230469-6.597656 15.199219 15.148437-26.167969 11zm191.574219-176.433594c6.398438 6.398438 1.601562 16.160156-2.902344 22.472656l-19.570312-19.570312c6.328125-4.460938 16.058594-9.3125 22.472656-2.902344zm-442.34375-125.65625c0-13.253906 10.746094-24 24-24h304c13.253906 0 24 10.746094 24 24v172.6875l-109.65625 109.65625c-.660156.792969-1.238281 1.648438-1.71875 2.558594l-23.199219 55.203125c-1.257812 2.996093-.574219 6.453125 1.726563 8.75 2.296875 2.292969 5.757812 2.972656 8.75 1.710937l55.160156-23.199218c.910156-.480469 1.765625-1.058594 2.554688-1.71875l66.382812-66.335938v140.6875c0 13.253906-10.746094 24-24 24h-304c-13.253906 0-24-10.746094-24-24zm0 0"/></svg>