<?xml version="1.0" encoding="iso-8859-1"?>
<!-- Generator: Adobe Illustrator 19.0.0, SVG Export Plug-In . SVG Version: 6.00 Build 0)  -->
<svg version="1.1" id="Capa_1" xmlns="http://www.w3.org/2000/svg" xmlns:xlink="http://www.w3.org/1999/xlink" x="0px" y="0px"
	 viewBox="0 0 480 480" style="enable-background:new 0 0 480 480;" xml:space="preserve">
<g>
	<g>
		<path d="M216,32c-13.255,0-24-10.745-24-24c0-4.418-3.582-8-8-8s-8,3.582-8,8c0,13.255-10.745,24-24,24c-4.418,0-8,3.582-8,8
			s3.582,8,8,8c13.255,0,24,10.745,24,24c0,4.418,3.582,8,8,8s8-3.582,8-8c0-13.255,10.745-24,24-24c4.418,0,8-3.582,8-8
			S220.418,32,216,32z M184,48c-2.276-3.031-4.969-5.724-8-8c3.031-2.276,5.724-4.969,8-8c2.276,3.031,4.969,5.724,8,8
			C188.969,42.276,186.276,44.969,184,48z"/>
	</g>
</g>
<g>
	<g>
		<path d="M352,16c-70.692,0-128,57.308-128,128s57.308,128,128,128s128-57.308,128-128C479.916,73.342,422.658,16.084,352,16z
			 M352,256c-61.856,0-112-50.144-112-112S290.144,32,352,32s112,50.144,112,112C463.934,205.828,413.828,255.934,352,256z"/>
	</g>
</g>
<g>
	<g>
		<path d="M352,48c-53.019,0-96,42.981-96,96s42.981,96,96,96s96-42.981,96-96C447.943,91.004,404.996,48.057,352,48z M352,224
			c-44.183,0-80-35.817-80-80s35.817-80,80-80c44.183,0,80,35.817,80,80C431.952,188.163,396.163,223.951,352,224z"/>
	</g>
</g>
<g>
	<g>
		<path d="M368,136h-8v-32h24c4.418,0,8-3.582,8-8s-3.582-8-8-8h-24V72c0-4.418-3.582-8-8-8s-8,3.582-8,8v16h-8
			c-17.673,0-32,14.327-32,32s14.327,32,32,32h8v32h-24c-4.418,0-8,3.582-8,8s3.582,8,8,8h24v16c0,4.418,3.582,8,8,8s8-3.582,8-8
			v-16h8c17.673,0,32-14.327,32-32S385.673,136,368,136z M344,136h-8c-8.837,0-16-7.163-16-16s7.163-16,16-16h8V136z M368,184h-8
			v-32h8c8.837,0,16,7.163,16,16S376.837,184,368,184z"/>
	</g>
</g>
<g>
	<g>
		<path d="M144,400c-13.255,0-24,10.745-24,24s10.745,24,24,24s24-10.745,24-24S157.255,400,144,400z M144,432c-4.418,0-8-3.582-8-8
			s3.582-8,8-8s8,3.582,8,8S148.418,432,144,432z"/>
	</g>
</g>
<g>
	<g>
		<path d="M48,288H8c-4.418,0-8,3.582-8,8s3.582,8,8,8h40c4.418,0,8-3.582,8-8S52.418,288,48,288z"/>
	</g>
</g>
<g>
	<g>
		<path d="M48,320H24c-4.418,0-8,3.582-8,8s3.582,8,8,8h24c4.418,0,8-3.582,8-8S52.418,320,48,320z"/>
	</g>
</g>
<g>
	<g>
		<path d="M472,288h-40c-1.936,0-3.806,0.702-5.264,1.976L364.992,344h-59.088c11.046-16.532,6.598-38.888-9.933-49.933
			c-5.912-3.95-12.861-6.061-19.971-6.067H80c-4.418,0-8,3.582-8,8v176c0,4.418,3.582,8,8,8h112c4.418,0,8-3.582,8-8v-16h168
			c1.762,0,3.475-0.583,4.872-1.656l104-80C478.844,372.83,480,370.486,480,368v-72C480,291.582,476.418,288,472,288z M184,464H88
			V304h96V464z M200,304h76c11.046,0,20,8.954,20,20c0,11.046-8.954,20-20,20h-76V304z M464,364.064L365.28,440H200v-80h168
			c1.936,0,3.806-0.702,5.264-1.976L435.008,304H464V364.064z"/>
	</g>
</g>
<g>
</g>
<g>
</g>
<g>
</g>
<g>
</g>
<g>
</g>
<g>
</g>
<g>
</g>
<g>
</g>
<g>
</g>
<g>
</g>
<g>
</g>
<g>
</g>
<g>
</g>
<g>
</g>
<g>
</g>
</svg>
